HIERARCHY
ROOT Hips
{
	OFFSET 0.000000 0.000000 0.000000 
	CHANNELS 6 Xposition Yposition Zposition Zrotation Yrotation Xrotation
	JOINT LeftUpLeg
	{
		OFFSET 1.363060 -1.794630 0.839290 
		CHANNELS 3 Zrotation Yrotation Xrotation
		JOINT LeftLeg
		{
			OFFSET 2.448110 -6.726130 0.000000 
			CHANNELS 3 Zrotation Yrotation Xrotation
			JOINT LeftFoot
			{
				OFFSET 2.562200 -7.039590 0.000000 
				CHANNELS 3 Zrotation Yrotation Xrotation
				JOINT LeftToeBase
				{
					OFFSET 0.157640 -0.433110 2.322550 
					CHANNELS 3 Zrotation Yrotation Xrotation
					End Site
					{
						OFFSET 0.000000 0.000000 0.000000 
					}
				}
			}
		}
	}
	JOINT RightUpLeg
	{
		OFFSET -1.305520 -1.794630 0.839290 
		CHANNELS 3 Zrotation Yrotation Xrotation
		JOINT RightLeg
		{
			OFFSET -2.542530 -6.985550 0.000000 
			CHANNELS 3 Zrotation Yrotation Xrotation
			JOINT RightFoot
			{
				OFFSET -2.568260 -7.056230 0.000000 
				CHANNELS 3 Zrotation Yrotation Xrotation
				JOINT RightToeBase
				{
					OFFSET -0.164730 -0.452590 2.363150 
					CHANNELS 3 Zrotation Yrotation Xrotation
					End Site
					{
						OFFSET 0.000000 0.000000 0.000000 
					}
				}
			}
		}
	}
	JOINT Spine
	{
		OFFSET 0.028270 2.035590 -0.193380 
		CHANNELS 3 Zrotation Yrotation Xrotation
		JOINT Spine1
		{
			OFFSET 0.056720 2.048850 -0.042750 
			CHANNELS 3 Zrotation Yrotation Xrotation
			JOINT Neck1
			{
				OFFSET -0.054170 1.746240 0.172020 
				CHANNELS 3 Zrotation Yrotation Xrotation
				JOINT Head
				{
					OFFSET 0.104070 1.761360 -0.123970 
					CHANNELS 3 Zrotation Yrotation Xrotation
					End Site
					{
						OFFSET 0.000000 0.000000 0.000000 
					}
				}
			}
			JOINT LeftArm
			{
				OFFSET 3.362410 1.200890 -0.311210 
				CHANNELS 3 Zrotation Yrotation Xrotation
				JOINT LeftForeArm
				{
					OFFSET 4.983000 -0.000000 -0.000000 
					CHANNELS 3 Zrotation Yrotation Xrotation
					JOINT LeftHand
					{
						OFFSET 3.483560 -0.000000 -0.000000 
						CHANNELS 3 Zrotation Yrotation Xrotation
						JOINT LeftHandIndex1
						{
							OFFSET 0.715260 -0.000000 -0.000000 
							CHANNELS 3 Zrotation Yrotation Xrotation
							End Site
							{
								OFFSET 0.000000 0.000000 0.000000 
							}
						}
					}
				}
			}
			JOINT RightArm
			{
				OFFSET -3.136600 1.374050 -0.404650 
				CHANNELS 3 Zrotation Yrotation Xrotation
				JOINT RightForeArm
				{
					OFFSET -5.241900 -0.000000 -0.000000 
					CHANNELS 3 Zrotation Yrotation Xrotation
					JOINT RightHand
					{
						OFFSET -3.444170 -0.000000 -0.000000 
						CHANNELS 3 Zrotation Yrotation Xrotation
						JOINT RightHandIndex1
						{
							OFFSET -0.622530 -0.000000 -0.000000 
							CHANNELS 3 Zrotation Yrotation Xrotation
							End Site
							{
								OFFSET 0.000000 0.000000 0.000000 
							}
						}
					}
				}
			}
		}
	}
}
MOTION
Frames: 7
Frame Time: 0.041667
4.226974 17.528342 -30.019678 -8.356283 0.111809 10.184813 2.070130 -5.436908 -48.823612 5.792502 16.945428 47.819711 3.704420 -10.026751 18.792751 0.136300 -2.379200 -6.555000 19.824632 -1.998457 -3.325251 -1.732026 -11.410886 32.683992 1.395414 -6.700151 2.471633 -3.613100 11.627000 -34.424700 2.376873 5.840723 -1.815026 -1.043778 2.921978 -6.004095 1.602257 -2.827999 2.063133 -0.941800 -1.872500 6.958000 -66.235731 32.032100 45.719223 84.939696 -61.303235 -66.842286 -0.556871 -1.493625 -10.796640 -7.125000 0.000000 0.000000 66.561789 -14.897724 37.081546 -81.828204 58.387728 -57.309039 1.468266 -1.029121 2.399815 7.125000 0.000000 0.000000 
4.258572 17.628785 -29.373391 -8.558248 -0.024220 10.143727 1.932369 -5.240202 -47.811654 4.687424 16.121727 44.399599 3.687380 -8.805480 20.307037 0.445900 -4.284200 -11.877500 19.503995 -1.426497 -2.316186 -1.880045 -11.559185 33.005812 1.449480 -7.512880 8.890548 -3.442700 11.379400 -33.570200 2.379931 5.975747 -1.809126 -1.119156 3.017804 -5.856307 1.617679 -2.931172 2.328879 -0.952100 -1.918400 7.083300 -66.997127 32.582490 44.980826 85.659775 -61.454743 -67.381850 -0.547244 -1.445755 -10.460341 -7.125000 0.000000 0.000000 66.466328 -15.237417 37.311099 -81.612107 58.411666 -57.099314 1.490692 -1.010111 1.603065 7.125000 0.000000 0.000000 
4.292262 17.722008 -28.727731 -8.840122 -0.100992 10.045424 1.937031 -5.146021 -46.874380 3.799964 15.364601 41.436580 3.534084 -6.972199 22.549962 0.462000 -4.360100 -12.092000 19.289507 -1.023499 -1.980789 -2.280950 -11.998908 34.253288 1.253052 -8.326455 15.422287 -2.866600 10.475900 -30.532000 2.393976 6.022667 -1.816561 -1.228599 3.057325 -5.774524 1.634723 -2.969489 2.584575 -0.966900 -1.929500 7.189400 -67.987387 33.043578 44.020990 86.110541 -61.541208 -67.715193 -0.550224 -1.397675 -10.197238 -7.125000 0.000000 0.000000 66.529159 -15.633128 37.415280 -80.649170 58.381304 -56.239133 1.505702 -0.980659 0.499427 7.125000 0.000000 0.000000 
4.327836 17.796399 -28.085001 -9.138470 -0.165256 9.866180 1.761657 -4.879041 -45.810001 3.167696 14.710312 39.049096 3.277938 -4.860989 24.322864 0.508200 -4.569600 -12.684800 19.141202 -0.863504 -1.964419 -2.821531 -12.568255 35.973475 0.831952 -8.846360 21.027034 -2.060000 8.990000 -25.764200 2.414591 6.007563 -1.832998 -1.326481 3.052503 -5.787108 1.671282 -2.939834 2.863190 -0.966600 -1.904400 7.303700 -69.016756 33.369007 43.038436 86.542703 -61.596413 -68.021890 -0.557611 -1.360865 -10.177204 -7.125000 0.000000 0.000000 66.577514 -16.099349 37.504754 -78.863063 58.274239 -54.677178 1.520098 -0.937599 -0.465753 7.125000 0.000000 0.000000 
4.360584 17.874242 -27.444258 -9.422655 -0.179665 9.584689 1.545379 -4.619621 -44.966901 2.749871 14.200746 37.222148 2.997383 -2.645631 26.670395 0.392100 -4.021000 -11.135800 19.127623 -0.703145 -2.332695 -3.599561 -13.345400 38.592466 0.296093 -8.800285 25.333549 -1.377700 7.427600 -20.988600 2.457294 5.891925 -1.822904 -1.307458 2.992903 -5.699109 1.713068 -2.846137 3.150157 -0.960800 -1.850500 7.453100 -70.168261 33.370696 41.950590 87.042207 -61.618271 -68.368878 -0.556430 -1.329176 -10.357580 -7.125000 0.000000 0.000000 66.640648 -16.542259 37.440880 -76.890847 58.120511 -52.979825 1.522381 -0.864436 -1.004733 7.125000 0.000000 0.000000 
4.387892 17.906258 -26.815234 -9.701171 -0.199955 9.237899 1.299789 -4.299388 -43.705509 2.647918 13.955191 36.507263 2.811785 -1.186874 28.322133 0.372500 -3.920100 -10.851900 19.381848 -0.485851 -2.959589 -4.562571 -14.274362 42.250353 0.041412 -7.451380 25.394825 -1.381500 7.437400 -21.017900 2.504642 5.760807 -1.789568 -1.228351 2.915569 -5.566892 1.719358 -2.697965 3.373695 -0.981900 -1.773900 7.591200 -71.246019 32.979484 40.954411 87.610779 -61.603310 -68.755712 -0.551657 -1.309453 -10.691885 -7.125000 0.000000 0.000000 66.714929 -16.912863 37.222607 -74.664209 57.898150 -51.102697 1.548854 -0.785084 -1.384817 7.125000 0.000000 0.000000 
4.412271 17.913687 -26.190082 -9.804239 -0.268606 8.790290 0.797426 -3.850496 -42.479051 2.658601 13.856214 36.427143 2.866040 -0.578524 30.564244 0.387700 -3.998300 -11.072000 19.516711 -0.489562 -3.882517 -5.853583 -15.303181 46.637933 0.328398 -6.985487 22.834999 -1.759700 8.346600 -23.771900 2.540653 5.630156 -1.754901 -1.064894 2.837654 -5.516049 1.714705 -2.557212 3.453598 -1.011600 -1.702900 7.614300 -72.166364 32.408503 40.204610 88.311716 -61.578155 -69.214184 -0.544430 -1.300464 -11.012317 -7.125000 0.000000 0.000000 66.866764 -17.703504 36.760351 -72.895086 57.720218 -49.666360 1.539037 -0.740116 -1.570099 7.125000 0.000000 0.000000 
